<?xml version="1.0" encoding="UTF-8" standalone="no"?>
<svg
   width="768.48602pt"
   height="768.48602pt"
   version="1.1"
   viewBox="0 0 768.48602 768.48602"
   id="svg1"
   sodipodi:docname="icon-wantmore-white.svg"
   inkscape:version="1.4-beta3 (01c8a1c, 2024-08-28, custom)"
   xmlns:inkscape="http://www.inkscape.org/namespaces/inkscape"
   xmlns:sodipodi="http://sodipodi.sourceforge.net/DTD/sodipodi-0.dtd"
   xmlns="http://www.w3.org/2000/svg"
   xmlns:svg="http://www.w3.org/2000/svg">
  <defs
     id="defs1" />
  <sodipodi:namedview
     id="namedview1"
     pagecolor="#717070"
     bordercolor="#000000"
     borderopacity="0.25"
     inkscape:showpageshadow="2"
     inkscape:pageopacity="0.0"
     inkscape:pagecheckerboard="0"
     inkscape:deskcolor="#d1d1d1"
     inkscape:document-units="pt"
     inkscape:zoom="0.509375"
     inkscape:cx="512.39264"
     inkscape:cy="513.37423"
     inkscape:window-width="1920"
     inkscape:window-height="1017"
     inkscape:window-x="-8"
     inkscape:window-y="-8"
     inkscape:window-maximized="1"
     inkscape:current-layer="svg1" />
  <path
     id="path1"
     d="m 384.54257,8.6474609e-5 c -38.612,0 -76.19545,12.413269525391 -107.21045,35.405269525391 -31.012,22.996 -53.80934,55.35527 -65.02734,92.301274 -11.215,36.941 -10.25705,76.51261 2.73925,112.87061 -54.168,0.25781 -107.55,12.98724 -156,37.19824 l -18.35888,9.12158 c -12.086,5.8906 -22.28225,15.05043 -29.42725,26.44043 -7.1484001,11.391 -10.96462013,24.55158 -11.01562013,37.99658 V 689.3746 c 0,17.789 7.06634003,34.85218 19.64794013,47.43018 12.578,12.582 29.64118,19.64795 47.43018,19.64795 9.9961,-0.0391 19.86288,-2.24997 28.92188,-6.48047 l 8.16064,-3.96094 c 35.488,-17.605 74.62923,-26.59428 114.24023,-26.23828 39.617,0.35156 78.58977,10.04227 113.75977,28.28027 l 30.71924,15.35889 c 13.523,6.7656 29.44094,6.7656 42.96094,0 l 30.71923,-15.35889 c 35.172,-18.238 74.14477,-27.92927 113.75977,-28.28027 39.613,-0.35547 78.75423,8.63308 114.24023,26.23828 l 8.15918,3.96094 c 9.0586,4.2305 18.92588,6.44137 28.92188,6.48047 17.664,-0.19141 34.54275,-7.34024 46.96875,-19.89844 12.422,-12.562 19.3916,-29.51569 19.3916,-47.17969 V 351.33407 c 0.004,-13.383 -3.72251,-26.49932 -10.75781,-37.88232 -7.0391,-11.383 -17.10855,-20.57915 -29.08155,-26.55615 v 10e-4 l -18.36035,-9.12158 c -48.457,-24.211 -101.84,-36.94024 -156,-37.19824 12.992,-36.359 13.95347,-75.93061 2.73487,-112.87061 C 545.5639,90.761166 522.76655,58.400896 491.75155,35.404896 460.73955,12.412896 423.15457,-3.7352539e-4 384.54257,-3.7352539e-4 Z M 384.24374,96.457116 c 22.277,0 43.64495,8.851654 59.39795,24.602054 15.75,15.754 24.60205,37.12095 24.60205,59.39795 0,22.277 -8.85165,43.64495 -24.60205,59.39795 -15.754,15.75 -37.12095,24.60205 -59.39795,24.60205 -22.277,0 -43.64495,-8.85165 -59.39795,-24.60205 -15.75,-15.754 -24.60205,-37.12095 -24.60205,-59.39795 0,-22.277 8.85165,-43.64495 24.60205,-59.39795 15.754,-15.75 37.12095,-24.602054 59.39795,-24.602054 z M 216.24228,336.92148 c 39.851,0 79.17693,9.11696 114.96093,26.65576 l 5.03907,2.51953 0.001,279.48047 c -77.535,-28.078 -162.46,-28.078 -240,0 V 366.09677 l 5.03906,-2.51953 c 35.785,-17.539 75.10848,-26.65576 114.95948,-26.65576 z m 336,0 c 39.851,0 79.17693,9.11696 114.96093,26.65576 l 5.03907,2.51953 10e-4,279.36035 c -77.535,-28.078 -162.46,-28.078 -240,0 V 366.09677 l 5.03906,-2.51953 c 35.78546,-17.539 75.10894,-26.65576 114.95994,-26.65576 z"
     style="fill:#ffffff" />
</svg>
