<?xml version="1.0" encoding="UTF-8" standalone="no"?>
<svg
   width="768.28802pt"
   height="768.28802pt"
   version="1.1"
   viewBox="0 0 768.28803 768.28802"
   id="svg5"
   sodipodi:docname="icon-live-red.svg"
   inkscape:version="1.4-beta3 (01c8a1c, 2024-08-28, custom)"
   xmlns:inkscape="http://www.inkscape.org/namespaces/inkscape"
   xmlns:sodipodi="http://sodipodi.sourceforge.net/DTD/sodipodi-0.dtd"
   xmlns="http://www.w3.org/2000/svg"
   xmlns:svg="http://www.w3.org/2000/svg">
  <defs
     id="defs5" />
  <sodipodi:namedview
     id="namedview5"
     pagecolor="#717070"
     bordercolor="#000000"
     borderopacity="0.25"
     inkscape:showpageshadow="2"
     inkscape:pageopacity="0.0"
     inkscape:pagecheckerboard="0"
     inkscape:deskcolor="#d1d1d1"
     inkscape:document-units="pt"
     inkscape:zoom="0.509375"
     inkscape:cx="512.39264"
     inkscape:cy="480"
     inkscape:window-width="1920"
     inkscape:window-height="1017"
     inkscape:window-x="-8"
     inkscape:window-y="-8"
     inkscape:window-maximized="1"
     inkscape:current-layer="svg5" />
  <path
     id="path1"
     d="m 132.38278,18.304142 c -12.738,0 -24.95254,5.06701 -33.956538,14.07861 -41.711,41.707 -71.70657,93.659878 -86.97657,150.629878 -15.2659995,56.973 -15.2659995,116.95994 0,173.93994 15.27,56.973 45.26557,108.92989 86.97657,150.62989 8.996098,8.9766 21.187948,14.01562 33.897948,14.01562 12.711,0 24.90195,-5.03872 33.89795,-14.01562 8.9766,-9 14.02001,-21.19135 14.02001,-33.90235 0,-12.711 -5.04301,-24.90195 -14.02001,-33.89795 -29.801,-29.793 -51.23354,-66.90488 -62.14454,-107.60888 -10.910998,-40.704 -10.909998,-83.55877 0,-124.25977 10.91,-40.707 32.34354,-77.82035 62.14454,-107.61035 l 0.12158,10e-4 c 9.0156,-9.003898 14.07861,-21.218928 14.07861,-33.960928 0,-12.738 -5.06311,-24.95694 -14.07861,-33.96094 -9.0039,-9.0117 -21.21894,-14.07861 -33.96094,-14.07861 z m 503.58105,0.0674 c -12.711,0 -24.90194,5.03872 -33.89794,14.01562 -8.9766,9 -14.02002,21.19135 -14.02002,33.90235 0,12.711 5.04302,24.90195 14.02002,33.897948 29.801,29.793 51.23353,66.90488 62.14453,107.60888 10.911,40.704 10.91,83.55877 0,124.25977 -10.91,40.707 -32.34353,77.82035 -62.14453,107.61035 l -0.12159,-10e-4 c -9.0156,9.0039 -14.07861,21.21893 -14.07861,33.96093 0,12.738 5.06311,24.95694 14.07861,33.96094 9.0039,9.0117 21.21894,14.07861 33.96094,14.07861 12.738,0 24.95254,-5.06701 33.95654,-14.07861 41.711,-41.707 71.70657,-93.65988 86.97657,-150.62988 15.266,-56.973 15.266,-116.95994 0,-173.93994 -15.27,-56.973 -45.26557,-108.929888 -86.97657,-150.629888 -8.9961,-8.9766 -21.18795,-14.01562 -33.89795,-14.01562 z M 500.12448,153.84613 c -12.711,0 -24.90235,5.04019 -33.90234,14.01709 -8.9766,9 -14.01563,21.18988 -14.01563,33.90088 0,12.711 5.03873,24.89941 14.01563,33.89941 9.0156,9.0039 14.07714,21.21894 14.07714,33.96094 0,12.738 -5.06164,24.95694 -14.07714,33.96094 l -0.11866,0.35888 c -9.0156,9.0039 -14.07715,21.21894 -14.07715,33.96094 0,12.738 5.06165,24.95401 14.07715,33.95801 9.0039,9.0156 21.21894,14.07715 33.96094,14.07715 12.738,0 24.95401,-5.06165 33.95801,-14.07715 27.113,-27.02 42.35449,-63.723 42.35449,-102 0,-38.277 -15.24149,-74.98 -42.35449,-102 -8.9961,-8.9766 -21.18795,-14.01709 -33.89795,-14.01709 z m -231.90088,0.1831 c -12.738,0 -24.95401,5.06165 -33.95801,14.07715 -27.113,27.02 -42.35449,63.723 -42.35449,102 0,38.277 15.24149,74.98 42.35449,102 8.9961,8.9766 21.18795,14.01709 33.89795,14.01709 12.711,0 24.90235,-5.04019 33.90235,-14.01709 8.97659,-9 14.01562,-21.18988 14.01562,-33.90088 0,-12.711 -5.03872,-24.89941 -14.01562,-33.89941 -9.0156,-9.0039 -14.07715,-21.21894 -14.07715,-33.96094 0,-12.738 5.06164,-24.95694 14.07715,-33.96094 l 0.11865,-0.35888 c 9.0156,-9.0039 14.07715,-21.21894 14.07715,-33.96094 0,-12.738 -5.06165,-24.95401 -14.07715,-33.95801 -9.0039,-9.0156 -21.21894,-14.07715 -33.96094,-14.07715 z m 116.63525,259.76661 c -1.6728,-0.025 -3.3535,0.0372 -5.03613,0.18896 -12.258,1.4883 -23.51975,7.48413 -31.59375,16.82373 -8.0781,9.3398 -12.38342,21.3528 -12.08642,33.6958 v 189.47901 h -108 c -17.148,0 -32.99534,9.1484 -41.56934,24 -8.5742,14.852 -8.5742,33.148 0,48 8.5742,14.852 24.42134,24 41.56934,24 l 0.001,10e-4 h 312 c 17.148,0 32.99534,-9.1484 41.56934,-24 8.5742,-14.852 8.5742,-33.148 0,-48 -8.5742,-14.852 -24.42134,-24 -41.56934,-24 h -108 v -192 c 0.0547,-13.516 -5.58958,-26.43041 -15.55078,-35.56641 -8.71238,-7.99461 -20.02477,-12.44743 -31.73438,-12.62255 z"
     style="fill:#d20202;fill-opacity:1" />
</svg>
