<?xml version="1.0" encoding="UTF-8" standalone="no"?>
<svg
   width="770.65302pt"
   height="770.65302pt"
   version="1.1"
   viewBox="0 0 770.65302 770.65301"
   id="svg1"
   sodipodi:docname="icon-webring-white.svg"
   inkscape:version="1.4-beta3 (01c8a1c, 2024-08-28, custom)"
   xmlns:inkscape="http://www.inkscape.org/namespaces/inkscape"
   xmlns:sodipodi="http://sodipodi.sourceforge.net/DTD/sodipodi-0.dtd"
   xmlns="http://www.w3.org/2000/svg"
   xmlns:svg="http://www.w3.org/2000/svg">
  <defs
     id="defs1" />
  <sodipodi:namedview
     id="namedview1"
     pagecolor="#717070"
     bordercolor="#000000"
     borderopacity="0.25"
     inkscape:showpageshadow="2"
     inkscape:pageopacity="0.0"
     inkscape:pagecheckerboard="0"
     inkscape:deskcolor="#d1d1d1"
     inkscape:document-units="pt"
     inkscape:zoom="0.509375"
     inkscape:cx="510.42945"
     inkscape:cy="503.55828"
     inkscape:window-width="1920"
     inkscape:window-height="1017"
     inkscape:window-x="-8"
     inkscape:window-y="-8"
     inkscape:window-maximized="1"
     inkscape:current-layer="svg1" />
  <path
     id="path1"
     d="m 382.59304,8.6762604 c -26.933,0 -53.86646,6.9659596 -78.00146,20.8974596 -48.266,27.867 -78,79.36808 -78,135.10108 -52.969,30.133 -95.83643,75.26949 -123.19043,129.72949 -27.354999,54.453 -37.977349,115.79051 -30.527349,176.27051 -38.293,24.113 -64.2272204,63.66364 -71.0742204,108.38964 -6.8516,44.73 6.0589,90.22622 35.3833004,124.69922 29.32,34.465 72.160159,54.50114 117.410159,54.91114 l 0.003,0.004 c 37.723,0.004 74.15247,-13.73011 102.48047,-38.64111 39.535,17.57 82.31559,26.64843 125.57959,26.64843 43.266,0 86.04659,-9.07853 125.57959,-26.64843 32.527,30.348 76.46525,45.36783 120.76025,41.27783 44.301,-4.0898 84.74567,-26.89938 111.15967,-62.69238 26.422,-35.789 36.30946,-81.15922 27.16846,-124.69922 -9.1406,-43.539 -36.43012,-81.10451 -75.01612,-103.24951 7.4492,-60.484 -3.17224,-121.82051 -30.52734,-176.27051 -27.355,-54.457 -70.22196,-99.59349 -123.18896,-129.72949 0,-55.734 -29.734,-107.23108 -78,-135.10108 C 436.45858,15.64222 409.52604,8.6762604 382.59304,8.6762604 Z m 0.003,102.0029296 c 15.914,0 31.17627,6.32003 42.42627,17.57373 11.254,11.25 17.57373,26.51227 17.57373,42.42627 0,15.914 -6.32003,31.17627 -17.57373,42.42627 -11.25,11.254 -26.51227,17.57373 -42.42627,17.57373 -15.914,0 -31.17627,-6.32003 -42.42627,-17.57373 -11.254,-11.25 -17.57373,-26.51227 -17.57373,-42.42627 0,-15.914 6.32003,-31.17627 17.57373,-42.42627 11.25,-11.254 26.51227,-17.57373 42.42627,-17.57373 z M 255.27468,260.43896 h 0.001 c 29.238,41.355 76.73388,65.9414 127.37988,65.9414 50.648,0 98.14488,-24.5864 127.37988,-65.9414 27.418,20.035 49.72777,46.25483 65.11377,76.52783 15.387,30.273 23.42183,63.74994 23.44483,97.71094 v 12.60205 c -45.082,3.5078 -86.42632,26.40083 -113.32032,62.75683 -26.891,36.352 -36.68472,82.5867 -26.84472,126.72071 -48.91,18.49999 -102.88883,18.49999 -151.79883,0 9.8398,-44.113 0.0623,-90.32769 -26.80518,-126.67969 -26.863,-36.348 -68.17295,-59.25885 -113.23095,-62.79785 v -12.60205 c 0.0391,-33.969 8.08989,-67.45306 23.49609,-97.72706 15.41,-30.277 37.74208,-56.48771 65.18408,-76.51171 z M 154.59597,542.67919 c 15.914,0 31.17627,6.32003 42.42627,17.57373 11.254,11.25 17.57373,26.51227 17.57373,42.42627 0,15.914 -6.32003,31.17627 -17.57373,42.42627 -11.25,11.254 -26.51227,17.57373 -42.42627,17.57373 -15.914,0 -31.17627,-6.32003 -42.42627,-17.57373 -11.254,-11.25 -17.573729,-26.51227 -17.573729,-42.42627 0,-15.914 6.320029,-31.17627 17.573729,-42.42627 11.25,-11.254 26.51227,-17.57373 42.42627,-17.57373 z m 456,0 c 15.914,0 31.17627,6.32003 42.42627,17.57373 11.254,11.25 17.57373,26.51227 17.57373,42.42627 0,15.914 -6.32003,31.17627 -17.57373,42.42627 -11.25,11.254 -26.51227,17.57373 -42.42627,17.57373 -15.914,0 -31.17627,-6.32003 -42.42627,-17.57373 -11.254,-11.25 -17.57373,-26.51227 -17.57373,-42.42627 0,-15.914 6.32003,-31.17627 17.57373,-42.42627 11.25,-11.254 26.51227,-17.57373 42.42627,-17.57373 z"
     style="fill:#ffffff" />
</svg>
