<?xml version="1.0" encoding="UTF-8" standalone="no"?>
<svg
   width="2303.9939pt"
   height="2303.9939pt"
   version="1.1"
   viewBox="0 0 2303.9939 2303.9938"
   id="svg3"
   sodipodi:docname="icon-news-white.svg"
   inkscape:version="1.4-beta3 (01c8a1c, 2024-08-28, custom)"
   xmlns:inkscape="http://www.inkscape.org/namespaces/inkscape"
   xmlns:sodipodi="http://sodipodi.sourceforge.net/DTD/sodipodi-0.dtd"
   xmlns="http://www.w3.org/2000/svg"
   xmlns:svg="http://www.w3.org/2000/svg">
  <defs
     id="defs3" />
  <sodipodi:namedview
     id="namedview3"
     pagecolor="#717070"
     bordercolor="#000000"
     borderopacity="0.25"
     inkscape:showpageshadow="2"
     inkscape:pageopacity="0.0"
     inkscape:pagecheckerboard="0"
     inkscape:deskcolor="#d1d1d1"
     inkscape:document-units="pt"
     inkscape:zoom="0.294375"
     inkscape:cx="1535.4565"
     inkscape:cy="1340.1274"
     inkscape:window-width="1920"
     inkscape:window-height="1017"
     inkscape:window-x="-8"
     inkscape:window-y="-8"
     inkscape:window-maximized="1"
     inkscape:current-layer="svg3" />
  <path
     id="path1"
     d="m 323.99844,143.9977 c -85.93,0 -168.3401,34.13744 -229.100105,94.89844 -60.762001,60.762 -94.89843763672,143.1701 -94.89843763672,229.1001 V 1727.9962 c 0,114.57 45.51627263672,224.4498 126.53027263672,305.4698 81.014,81.02 190.88973,126.5302 305.46973,126.5302 h -0.006 1440.0001 c 114.57,0 224.4498,-45.5163 305.4698,-126.5303 81.02,-81.014 126.5302,-190.8897 126.5302,-305.4697 V 971.99477 c 0,-85.93 -34.1374,-168.3401 -94.8984,-229.1001 -60.762,-60.762 -143.1701,-94.89843 -229.1001,-94.89843 h -252 v -180 c 0,-85.93 -34.136,-168.3401 -94.897,-229.1001 -60.762,-60.762 -143.1701,-94.89844 -229.1001,-94.89844 z m -0.004,287.99707 H 1403.994 c 9.5469,0 18.7036,3.79248 25.4576,10.54248 6.75,6.7539 10.5424,15.91052 10.5424,25.45752 V 1727.9948 c 0.1016,49.09 8.6243,97.793 25.1983,144 H 431.99258 c -38.191,0 -74.81583,-15.1733 -101.81983,-42.1773 -27.004,-27.008 -42.17578,-63.6328 -42.17578,-101.8198 l -0.003,-1260.00293 c 0,-9.5469 3.79248,-18.70352 10.54248,-25.45752 6.7539,-6.75 15.91052,-10.54248 25.45752,-10.54248 z m 324,288 c -51.445,0 -98.98347,27.445 -124.70947,72 -25.723,44.555 -25.723,99.445 0,144 25.723,44.555 73.26147,72.00003 124.70947,72.00003 h 431.99996 c 51.445,0 98.9835,-27.44503 124.7095,-72.00003 25.723,-44.555 25.723,-99.445 0,-144 -25.723,-44.555 -73.2615,-72 -124.7095,-72 z m 1079.99996,216 h 252 c 9.5469,0 18.7036,3.79248 25.4576,10.54248 6.75,6.7539 10.5424,15.91052 10.5424,25.45752 v 756.00003 c 0.2031,40.82 -16.9258,79.811 -47.1328,107.269 -30.207,27.461 -70.649,40.8101 -111.271,36.7281 -36.387,-4.6211 -69.7686,-22.5592 -93.7016,-50.3482 -23.938,-27.793 -36.728,-63.4659 -35.899,-100.1309 z M 647.99404,1295.9948 c -51.445,0 -98.98347,27.445 -124.70947,72 -25.723,44.555 -25.723,99.445 0,144 25.723,44.555 73.26147,72 124.70947,72 H 1079.994 c 51.445,0 98.9835,-27.445 124.7095,-72 25.723,-44.555 25.723,-99.445 0,-144 -25.723,-44.555 -73.2615,-72 -124.7095,-72 z"
     style="fill:#ffffff" />
</svg>
