<?xml version="1.0" encoding="UTF-8" standalone="no"?>
<svg
   width="768.05902pt"
   height="768.05902pt"
   version="1.1"
   viewBox="0 0 768.05902 768.05902"
   id="svg1"
   sodipodi:docname="icon-topstory-red.svg"
   inkscape:version="1.4-beta3 (01c8a1c, 2024-08-28, custom)"
   xmlns:inkscape="http://www.inkscape.org/namespaces/inkscape"
   xmlns:sodipodi="http://sodipodi.sourceforge.net/DTD/sodipodi-0.dtd"
   xmlns="http://www.w3.org/2000/svg"
   xmlns:svg="http://www.w3.org/2000/svg">
  <defs
     id="defs1" />
  <sodipodi:namedview
     id="namedview1"
     pagecolor="#717070"
     bordercolor="#000000"
     borderopacity="0.25"
     inkscape:showpageshadow="2"
     inkscape:pageopacity="0.0"
     inkscape:pagecheckerboard="0"
     inkscape:deskcolor="#d1d1d1"
     inkscape:document-units="pt"
     inkscape:zoom="0.509375"
     inkscape:cx="512.39264"
     inkscape:cy="511.41104"
     inkscape:window-width="1920"
     inkscape:window-height="1017"
     inkscape:window-x="-8"
     inkscape:window-y="-8"
     inkscape:window-maximized="1"
     inkscape:current-layer="svg1" />
  <path
     id="path1"
     d="M 408.13635,8.5590652e-4 C 403.95814,-0.00814409 399.74544,0.52829591 395.60169,1.6385459 c -16.574,4.4414 -29.51994,17.3869401 -33.96094,33.9609401 -4.4414,16.574 0.29608,34.2586 12.4292,46.3916 l 26.03906,26.039064 -156,156 H 120.02942 c -28.492002,-0.008 -55.816332,11.30434 -75.965332,31.44434 -20.152,20.145 -31.46924,47.46894 -31.46924,75.96094 0,28.488 11.32463,55.81261 31.47363,75.95361 L 148.10901,552.02869 14.068478,686.06922 c -12.1330007,12.133 -16.8716607,29.81513 -12.4306607,46.39013 4.4414,16.574 17.3869407,29.51994 33.9609407,33.96094 16.574,4.4414 34.2586,-0.29608 46.3916,-12.4292 L 216.03089,619.95057 320.67053,724.59021 v -0.003 c 20.141,20.152 47.46415,31.47257 75.95215,31.47657 28.492,0 55.81594,-11.32024 75.96094,-31.46924 20.141,-20.148 31.4538,-47.47733 31.4458,-75.96533 V 523.9491 l 156,-156 26.03906,26.03906 c 12.133,12.133 29.81514,16.87167 46.39014,12.43067 16.574,-4.4414 29.5214,-17.38694 33.9624,-33.96094 4.4414,-16.574 -0.29754,-34.2586 -12.43066,-46.3916 L 441.99182,14.069216 C 432.89207,4.9694659 420.67101,0.02860591 408.13635,8.5590652e-4 Z M 468.03235,175.9491 592.11194,300.02869 422.06995,470.06922 c -9,9.0117 -14.05106,21.22693 -14.03906,33.96093 v 144.59913 c -0.0156,4.5977 -2.79297,8.73507 -7.04297,10.49267 -4.25,1.7576 -9.13568,0.78855 -12.39698,-2.45361 L 249.99036,518.06922 111.38977,379.46863 c -2.1523,-2.125 -3.36278,-5.01996 -3.35888,-8.04346 0.32031,-6.3906 5.6016,-11.40594 12,-11.39794 h 144 c 12.734,0.0117 24.94893,-5.03917 33.96093,-14.03907 z"
     style="fill:#d20202;fill-opacity:1" />
</svg>
