<?xml version="1.0" encoding="UTF-8" standalone="no"?>
<svg
   width="768.005pt"
   height="768.005pt"
   version="1.1"
   viewBox="0 0 768.00501 768.00501"
   id="svg2"
   sodipodi:docname="icon-aceattorney-white.svg"
   inkscape:version="1.4-beta3 (01c8a1c, 2024-08-28, custom)"
   xmlns:inkscape="http://www.inkscape.org/namespaces/inkscape"
   xmlns:sodipodi="http://sodipodi.sourceforge.net/DTD/sodipodi-0.dtd"
   xmlns="http://www.w3.org/2000/svg"
   xmlns:svg="http://www.w3.org/2000/svg">
  <defs
     id="defs2" />
  <sodipodi:namedview
     id="namedview2"
     pagecolor="#717070"
     bordercolor="#000000"
     borderopacity="0.25"
     inkscape:showpageshadow="2"
     inkscape:pageopacity="0.0"
     inkscape:pagecheckerboard="0"
     inkscape:deskcolor="#d1d1d1"
     inkscape:document-units="pt"
     inkscape:zoom="0.509375"
     inkscape:cx="512.39264"
     inkscape:cy="509.44785"
     inkscape:window-width="1920"
     inkscape:window-height="1017"
     inkscape:window-x="-8"
     inkscape:window-y="-8"
     inkscape:window-maximized="1"
     inkscape:current-layer="svg2" />
  <path
     id="path1"
     d="m 432.0046,0.00323244 c -36,0 -69.96094,14.03946956 -95.39794,39.48046956 L 147.48654,228.60382 c -25.441,25.441 -39.48047,59.39795 -39.48047,95.39795 0,36 14.03947,69.96095 39.48047,95.39795 l 117.12012,117.12012 c 25.441,25.441 59.39794,39.48047 95.39794,39.48047 36,0 69.96095,-14.03947 95.39795,-39.48047 l 60.60205,-60.60205 170.03907,170.04052 c 9.3594,9.3594 21.60193,14.03907 33.96093,14.03907 12.359,0 24.60194,-4.67977 33.96094,-14.03907 18.719,-18.719 18.719,-49.07787 0,-67.92187 l -0.006,0.006 -170.03892,-170.04067 60.60205,-60.60205 c 25.441,-25.441 39.479,-59.39795 39.479,-95.39795 0,-36 -14.038,-69.96095 -39.479,-95.39795 L 527.40255,39.483702 C 501.96155,14.042702 468.0046,0.00323244 432.0046,0.00323244 Z M 431.88156,96.003232 c 10.32,0 20.16047,4.078048 27.48047,11.397948 L 576.48214,224.5213 c 7.3203,7.3203 11.39795,17.16047 11.39795,27.48047 0,10.32 -4.07805,20.16047 -11.39795,27.48047 L 387.36203,468.60236 h 0.11865 c -14.641,14.641 -40.32013,14.641 -55.07813,0 L 215.28244,351.48224 c -7.3203,-7.3203 -11.39795,-17.16047 -11.39795,-27.48047 0,-10.32 4.07805,-20.16047 11.39795,-27.48047 L 404.40255,107.40118 c 7.3203,-7.3203 17.15901,-11.397948 27.47901,-11.397948 z M 48.000212,672.00177 c -26.52,0 -47.99999955859,21.48 -47.99999955859,48 0,26.52 21.47999955859,48 47.99999955859,48 H 456.00021 c 26.52,0 48,-21.48 48,-48 0,-26.52 -21.48,-48 -48,-48 z"
     style="fill:#ffffff" />
</svg>
