<?xml version="1.0" encoding="UTF-8" standalone="no"?>
<svg
   width="768.138pt"
   height="768.138pt"
   version="1.1"
   viewBox="0 0 768.138 768.138"
   id="svg2"
   sodipodi:docname="icon-review-white.svg"
   inkscape:version="1.4-beta3 (01c8a1c, 2024-08-28, custom)"
   xmlns:inkscape="http://www.inkscape.org/namespaces/inkscape"
   xmlns:sodipodi="http://sodipodi.sourceforge.net/DTD/sodipodi-0.dtd"
   xmlns="http://www.w3.org/2000/svg"
   xmlns:svg="http://www.w3.org/2000/svg">
  <defs
     id="defs2" />
  <sodipodi:namedview
     id="namedview2"
     pagecolor="#717070"
     bordercolor="#000000"
     borderopacity="0.25"
     inkscape:showpageshadow="2"
     inkscape:pageopacity="0.0"
     inkscape:pagecheckerboard="0"
     inkscape:deskcolor="#d1d1d1"
     inkscape:document-units="pt"
     inkscape:zoom="0.509375"
     inkscape:cx="512.39264"
     inkscape:cy="495.70552"
     inkscape:window-width="1920"
     inkscape:window-height="1017"
     inkscape:window-x="-8"
     inkscape:window-y="-8"
     inkscape:window-maximized="1"
     inkscape:current-layer="svg2" />
  <path
     id="path1"
     d="m 552.54898,11.908714 c -9.70624,-0.0732 -19.43826,0.90245 -29.02588,2.938479 -25.57,5.4336 -49.00413,18.188121 -67.45313,36.703121 L 349.26968,158.23049 c -10.078,10.062 -15.16851,24.08065 -13.89551,38.26465 1.2773,14.184 8.7853,27.07076 20.4961,35.17676 9.8438,6.5703 21.70782,9.43312 33.46582,8.06982 11.762,-1.3633 22.65188,-6.85863 30.73388,-15.51123 l 84,-84 v 327.83935 c 0,17.148 9.1484,32.99681 24,41.57081 14.852,8.5742 33.148,8.5742 48,0 14.852,-8.5742 24,-24.42281 24,-41.57081 V 140.11037 l 85.19825,85.07813 v 0.003 c 7.793,8.0078 18.09447,13.10596 29.18847,14.43896 11.094,1.332 22.30846,-1.18017 31.77246,-7.11767 12.176,-7.8867 20.134,-20.85137 21.646,-35.27637 1.5156,-14.426 -3.57444,-28.7624 -13.84424,-39.0044 L 649.26822,53.467794 c -13.918,-14.195 -30.68325,-25.27653 -49.19825,-32.519531 -15.23937,-5.88381 -31.34392,-8.917489 -47.52099,-9.039549 z m -335.521,240.158206 c -8.287,0 -16.574,2.14356 -24,6.43066 -14.852,8.5742 -24,24.42134 -24,41.56934 V 628.02639 L 83.828275,542.94973 v -0.004 c -7.8516,-8.2461 -18.33612,-13.48822 -29.64112,-14.82422 -11.309,-1.3398 -22.72676,1.3169 -32.28076,7.5044 l 0.001,0.003 C 9.7313946,543.51561 1.7748546,556.48028 0.26285453,570.90528 -1.2527454,585.33128 3.8372946,599.66767 14.107095,609.90967 L 118.86687,714.66944 c 13.918,14.195 30.68471,25.27799 49.19971,32.52099 24.383,9.4141 50.97987,11.53048 76.54687,6.10108 25.57,-5.4336 49.00413,-18.18813 67.45313,-36.70313 L 418.86587,609.90774 c 10.078,-10.062 15.16851,-24.08212 13.89551,-38.26612 -1.2773,-14.184 -8.78529,-27.06929 -20.49609,-35.17529 -9.7578,-6.3164 -21.41345,-9.02825 -32.96045,-7.67285 -11.543,1.3594 -22.25386,6.70436 -30.27686,15.11426 l -84,84 V 300.06692 c 0,-17.148 -9.1484,-32.99534 -24,-41.56934 -7.426,-4.2871 -15.713,-6.43066 -24,-6.43066 z"
     style="fill:#ffffff" />
</svg>
