<?xml version="1.0" encoding="UTF-8" standalone="no"?>
<svg
   width="2232.085pt"
   height="2232.085pt"
   version="1.1"
   viewBox="0 0 2232.085 2232.0849"
   id="svg1"
   sodipodi:docname="icon-link-black.svg"
   inkscape:version="1.4-beta3 (01c8a1c, 2024-08-28, custom)"
   xmlns:inkscape="http://www.inkscape.org/namespaces/inkscape"
   xmlns:sodipodi="http://sodipodi.sourceforge.net/DTD/sodipodi-0.dtd"
   xmlns="http://www.w3.org/2000/svg"
   xmlns:svg="http://www.w3.org/2000/svg">
  <defs
     id="defs1" />
  <sodipodi:namedview
     id="namedview1"
     pagecolor="#717070"
     bordercolor="#000000"
     borderopacity="0.25"
     inkscape:showpageshadow="2"
     inkscape:pageopacity="0.0"
     inkscape:pagecheckerboard="0"
     inkscape:deskcolor="#d1d1d1"
     inkscape:document-units="pt"
     inkscape:zoom="0.294375"
     inkscape:cx="1487.8981"
     inkscape:cy="1442.0382"
     inkscape:window-width="1920"
     inkscape:window-height="1017"
     inkscape:window-x="-8"
     inkscape:window-y="-8"
     inkscape:window-maximized="1"
     inkscape:current-layer="svg1" />
  <path
     id="path1"
     d="m 1332.3299,35.963713 c -12.534,-0.02821 -25.1713,1.581621 -37.6011,4.911621 -49.72,13.321 -88.5559,52.156886 -101.8799,101.879876 -13.32,49.721 0.894,102.77241 37.292,139.17041 l 628.9204,628.5586 c 18.117,18.391 33.7304,39.09106 46.4414,61.56006 H 144.00317 v -0.003 c -51.448001,0 -98.987939,27.44504 -124.710939,72.00002 -25.7229997,44.555 -25.7229997,99.445 0,144 25.726,44.555 73.265938,72 124.710939,72 H 1905.5027 c -12.711,22.469 -28.3244,43.1691 -46.4414,61.5601 l -628.9204,628.5601 c -36.3984,36.4 -50.612,89.4499 -37.292,139.1689 13.321,49.72 52.1569,88.5559 101.8799,101.8799 49.721,13.32 102.7724,-0.894 139.1704,-37.292 l 628.5586,-628.9204 c 71.874,-71.73 123.5742,-161.1485 149.8902,-259.2305 26.316,-98.08 26.316,-201.3672 0,-299.44927 -26.32,-98.08 -78.0152,-187.49247 -149.8902,-259.23047 L 1433.8992,78.167326 c -27.3,-27.298852 -63.9673,-42.118973 -101.5693,-42.203613 z" />
</svg>
