<?xml version="1.0" encoding="UTF-8" standalone="no"?>
<svg
   version="1.1"
   width="683"
   height="444"
   style="clip-rule:evenodd;fill-rule:evenodd;image-rendering:optimizeQuality;shape-rendering:geometricPrecision;text-rendering:geometricPrecision"
   id="svg5"
   sodipodi:docname="tri-logo-bw.svg"
   inkscape:version="1.4-beta3 (01c8a1c, 2024-08-28, custom)"
   xmlns:inkscape="http://www.inkscape.org/namespaces/inkscape"
   xmlns:sodipodi="http://sodipodi.sourceforge.net/DTD/sodipodi-0.dtd"
   xmlns="http://www.w3.org/2000/svg"
   xmlns:svg="http://www.w3.org/2000/svg">
  <defs
     id="defs5" />
  <sodipodi:namedview
     id="namedview5"
     pagecolor="#ffffff"
     bordercolor="#000000"
     borderopacity="0.25"
     inkscape:showpageshadow="2"
     inkscape:pageopacity="0.0"
     inkscape:pagecheckerboard="0"
     inkscape:deskcolor="#d1d1d1"
     inkscape:zoom="0.91779279"
     inkscape:cx="321.42331"
     inkscape:cy="109.50184"
     inkscape:window-width="1920"
     inkscape:window-height="1017"
     inkscape:window-x="-8"
     inkscape:window-y="-8"
     inkscape:window-maximized="1"
     inkscape:current-layer="svg5" />
  <path
     id="path3"
     style="clip-rule:evenodd;opacity:0.939;fill-rule:evenodd;image-rendering:optimizeQuality;shape-rendering:geometricPrecision;text-rendering:geometricPrecision;fill:#7c7b7b;fill-opacity:1"
     d="M 100 0 C 97.344 17.7674 92.844 35.1007 86.5 52 C 70.9321 93.7356 42.0988 121.736 0 136 L 0 180 L 63 180 C 62.8333 232.668 63 285.334 63.5 338 C 64.1865 345.453 65.5199 352.786 67.5 360 C 84.7039 408.704 118.871 436.704 170 444 L 200 444 C 215.457 442.012 230.623 438.345 245.5 433 C 246.333 400.995 246.167 368.995 245 337 C 237.653 341.675 229.986 345.842 222 349.5 C 207.053 356.936 191.386 359.27 175 356.5 C 163.972 352.637 158.139 344.804 157.5 333 C 157 282.001 156.833 231.001 157 180 C 173.67 180.167 190.337 180 207 179.5 C 220 153.833 233 128.167 246 102.5 C 279.667 83 313.333 63.5 347 44 C 346.667 43.6667 346.333 43.3333 346 43 C 310.406 46.9259 274.739 50.2593 239 53 C 240.52 69.0163 242.187 85.0163 244 101 L 157 101 L 157 0 L 100 0 z M 422 0 C 416.96 20.1588 411.293 40.1588 405 60 C 444.553 50.0249 484.22 39.5249 524 28.5 C 491.363 18.6765 458.696 9.17646 426 0 L 422 0 z M 613 0 C 592.895 12.5596 572.895 25.3929 553 38.5 C 596.314 37.9034 639.647 37.07 683 36 L 683 35 C 660.012 23.8402 637.346 12.1735 615 0 L 613 0 z M 474 95 C 443.598 97.9511 418.765 111.284 399.5 135 C 399 123.672 398.833 112.338 399 101 L 304 101 C 303.668 213.57 304.001 326.07 305 438.5 C 336.238 439.329 367.405 439.162 398.5 438 C 398.833 377.333 399.167 316.667 399.5 256 C 400.539 249.177 402.206 242.51 404.5 236 C 418.299 203.861 442.466 185.361 477 180.5 C 492.33 180 507.663 179.833 523 180 L 523 95 L 474 95 z M 572 101 L 572 438 L 665 438 L 665 101 L 572 101 z " />
</svg>
