<?xml version="1.0" encoding="UTF-8" standalone="no"?>
<svg
   width="768.245pt"
   height="768.245pt"
   version="1.1"
   viewBox="0 0 768.24499 768.24499"
   id="svg1"
   sodipodi:docname="icon-comments-black.svg"
   inkscape:version="1.4-beta3 (01c8a1c, 2024-08-28, custom)"
   xmlns:inkscape="http://www.inkscape.org/namespaces/inkscape"
   xmlns:sodipodi="http://sodipodi.sourceforge.net/DTD/sodipodi-0.dtd"
   xmlns="http://www.w3.org/2000/svg"
   xmlns:svg="http://www.w3.org/2000/svg">
  <defs
     id="defs1" />
  <sodipodi:namedview
     id="namedview1"
     pagecolor="#717070"
     bordercolor="#000000"
     borderopacity="0.25"
     inkscape:showpageshadow="2"
     inkscape:pageopacity="0.0"
     inkscape:pagecheckerboard="0"
     inkscape:deskcolor="#d1d1d1"
     inkscape:document-units="pt"
     inkscape:zoom="0.509375"
     inkscape:cx="624.29448"
     inkscape:cy="519.2638"
     inkscape:window-width="1920"
     inkscape:window-height="1017"
     inkscape:window-x="-8"
     inkscape:window-y="-8"
     inkscape:window-maximized="1"
     inkscape:current-layer="svg1" />
  <path
     id="path1"
     d="m 384.10905,0.12176256 c -9.2383,0 -18.47877,0 -27.71777,0.96094004 -90.254,7.1797 -175.13014,45.7577804 -239.89014,109.0297774 -64.760008,63.272 -105.300338,147.23004 -114.590338,237.29004 -6.2383,65.918 4.75728,132.32924 31.91748,192.71924 l -30,105.12012 c -4.8125001,16.531 -5.0938,34.05879 -0.80859,50.73779 4.2852,16.676 12.98094,31.8985 25.16894,44.0625 l -10e-4,0.003 c 12.145,12.02 27.28084,20.58227 43.83984,24.80127 16.559,4.2227 33.946268,3.94091 50.364268,-0.80127 l 105.71878,-29.64118 c 49.008,22.215 102.19,33.71124 156,33.71924 12,0 24.00024,-9.6e-4 36.71924,-1.80176 90.062,-9.2812 174.02004,-49.82287 237.29004,-114.58887 63.27,-64.766 101.84978,-149.64014 109.02978,-239.89014 4.0039,-52.68 -2.99618,-105.62068 -20.55908,-155.45068 -17.559,-49.832 -45.29292,-95.46026 -81.44092,-133.98926 C 629.16158,83.879523 585.65374,53.147883 537.30974,32.116883 488.96974,11.081883 436.82905,0.19576256 384.10905,0.12176256 Z m -0.001,96.00293044 c 74,-0.0156 145.16975,28.457787 198.73975,79.508787 53.574,51.047 85.43779,120.7592 88.98779,194.6792 3.5508,73.914 -21.48739,146.36103 -69.92139,202.31103 -48.434,55.949 -116.5397,91.10362 -190.1997,98.18262 -9.2812,0.87891 -18.48006,1.32129 -27.60206,1.32129 -43.84,-0.0195 -87.08235,-10.16411 -126.36035,-29.64111 -8.0781,-4.0938 -16.98806,-6.26899 -26.03906,-6.35889 h -1.80029 c -5.2344,-0.004 -10.44547,0.72164 -15.48047,2.15918 L 96.111972,672.12762 129.95134,553.68768 c 1.4375,-5.0312 2.16454,-10.24247 2.16064,-15.48047 v -1.68018 c -0.0898,-9.0508 -2.26508,-17.96106 -6.35888,-26.03906 l -0.12451,-0.003 v -0.004 c -23.602,-47.676 -33.371718,-101.00948 -28.199718,-153.95948 6.761708,-67.602 37.102228,-130.6699 85.699228,-178.1499 48.598,-47.477 112.36107,-76.34034 180.10107,-81.527337 6.957,-0.71907 13.91742,-0.71956 20.87842,-0.71956 z"
     style="fill:#000000" />
</svg>
