<?xml version="1.0" encoding="UTF-8" standalone="no"?>
<svg
   width="2304.064pt"
   height="2304.064pt"
   version="1.1"
   viewBox="0 0 2304.064 2304.064"
   id="svg1"
   sodipodi:docname="icon-comments.svg"
   inkscape:version="1.4 (86a8ad7, 2024-10-11)"
   xmlns:inkscape="http://www.inkscape.org/namespaces/inkscape"
   xmlns:sodipodi="http://sodipodi.sourceforge.net/DTD/sodipodi-0.dtd"
   xmlns="http://www.w3.org/2000/svg"
   xmlns:svg="http://www.w3.org/2000/svg">
  <defs
     id="defs1" />
  <sodipodi:namedview
     id="namedview1"
     pagecolor="#717070"
     bordercolor="#000000"
     borderopacity="0.25"
     inkscape:showpageshadow="2"
     inkscape:pageopacity="0.0"
     inkscape:pagecheckerboard="0"
     inkscape:deskcolor="#d1d1d1"
     inkscape:document-units="pt"
     inkscape:zoom="0.294375"
     inkscape:cx="1535.4565"
     inkscape:cy="1537.155"
     inkscape:window-width="2880"
     inkscape:window-height="1694"
     inkscape:window-x="-11"
     inkscape:window-y="-11"
     inkscape:window-maximized="1"
     inkscape:current-layer="svg1" />
  <path
     id="path1"
     d="M 1152.0683,0.03091656 C 517.02832,0.03091656 0.06837264,484.59092 0.06837264,1080.0309 c 0.45703,202.24 60.56629436,399.8396 172.80028736,568.0796 -21.84,47.105 -47.23394,92.4777 -75.960932,135.7207 l -48.237305,72 c -38.8869992,58.094 -55.3161441,128.3401 -46.2231441,197.6601 9.0930001,69.32 43.0817191,132.9494 95.6367191,179.0494 52.554992,46.098 120.079972,71.5077 189.979972,71.4917 204.65,0.2305 404.40053,-62.621 572.04053,-180 95.5,23.797 193.5395,35.887 291.9595,36 635.04,0 1152,-484.56 1152,-1080 0,-595.44002 -516.96,-1080.0000186 -1152,-1080.0000186 z m 0,288.00000344 c 477,0 864,354.6 864,791.99998 0,437.3991 -386.9984,791.9985 -863.9971,792 -74.227,0.082 -148.1997,-8.742 -220.31976,-26.2808 -41.328,-9.6211 -84.21513,-10.461 -125.89013,-2.4609 -41.672,8 -81.20181,24.6603 -116.02881,48.9023 -118.3729,80.855 -258.42413,124.0194 -401.76413,123.8394 l 48.23877,-72 c 44.195,-66.625 82.27276,-137.1106 113.75976,-210.6006 15.363,-37.102 20.97943,-77.5159 16.31543,-117.3999 -4.6641,-39.887 -19.44854,-77.918 -42.95654,-110.48 -87.914,-124.49 -135.19035,-273.1195 -135.36035,-425.5195 0,-437.39998 386.99995,-791.99998 863.99996,-791.99998 z" />
</svg>
