<?xml version="1.0" encoding="UTF-8" standalone="no"?>
<svg
   width="1793pt"
   height="1793pt"
   version="1.1"
   viewBox="0 0 1793 1793"
   id="svg1"
   sodipodi:docname="icon-topstory-blue.svg"
   inkscape:version="1.4 (86a8ad7, 2024-10-11)"
   xml:space="preserve"
   xmlns:inkscape="http://www.inkscape.org/namespaces/inkscape"
   xmlns:sodipodi="http://sodipodi.sourceforge.net/DTD/sodipodi-0.dtd"
   xmlns="http://www.w3.org/2000/svg"
   xmlns:svg="http://www.w3.org/2000/svg"><defs
     id="defs1" /><sodipodi:namedview
     id="namedview1"
     pagecolor="#717070"
     bordercolor="#000000"
     borderopacity="0.25"
     inkscape:showpageshadow="2"
     inkscape:pageopacity="0.0"
     inkscape:pagecheckerboard="0"
     inkscape:deskcolor="#d1d1d1"
     inkscape:document-units="pt"
     inkscape:zoom="0.294375"
     inkscape:cx="1691.7197"
     inkscape:cy="664.1189"
     inkscape:window-width="2880"
     inkscape:window-height="1694"
     inkscape:window-x="-11"
     inkscape:window-y="-11"
     inkscape:window-maximized="1"
     inkscape:current-layer="svg1" /><path
     style="fill:#1564dc;fill-opacity:1"
     d="m 795.643,1590.1361 c -87.18151,-174.9229 -101.35073,-202.7643 -102.87512,-202.1415 -1.59519,0.6517 -8.02842,2.7212 -9.26788,2.9813 -0.275,0.058 -3.65,1.1733 -7.5,2.4792 -3.85,1.3059 -7.11722,2.2911 -7.26048,2.1894 -0.14326,-0.1018 -1.60576,0.5107 -3.25,1.3609 -1.64424,0.8503 -2.98952,1.3254 -2.98952,1.0558 0,-0.2696 -2.025,0.3779 -4.5,1.4388 -2.475,1.0609 -4.5,1.7084 -4.5,1.4388 0,-0.2696 -1.34528,0.2055 -2.98952,1.0558 -1.64424,0.8502 -3.33174,1.5376 -3.75,1.5273 -0.41826,-0.01 -3.68548,0.975 -7.26048,2.1894 -3.575,1.2143 -6.725,2.2443 -7,2.2887 -0.275,0.044 -3.425,1.0744 -7,2.2887 -3.575,1.2144 -6.95,2.2531 -7.5,2.3082 -0.55,0.055 -1.8167,0.5374 -2.8149,1.0716 -0.99819,0.5342 -2.57319,1.132 -3.5,1.3284 -0.9268,0.1964 -4.73545,1.4795 -8.46366,2.8514 -3.72821,1.3718 -7.10321,2.5304 -7.5,2.5746 -0.39679,0.044 -3.42144,0.9789 -6.72144,2.0771 -3.3,1.0982 -6.45,2.0418 -7,2.0969 -0.55,0.055 -1.8167,0.5374 -2.8149,1.0716 -0.99819,0.5342 -2.57319,1.1564 -3.5,1.3825 -0.9268,0.2261 -71.15886,23.6084 -156.07124,51.9606 -84.91238,28.3522 -154.59685,51.3387 -154.85439,51.0812 -0.25753,-0.2575 31.75397,-97.1337 71.13667,-215.2803 39.3827,-118.1467 71.26717,-214.9486 70.85438,-215.1153 C 406.33774,1099.5304 314.65,1053.799 203,998.0718 L 0,896.7497 203,795.509 C 314.65,739.8267 406.10332,694.1797 406.2296,694.07127 406.35588,693.96284 374.24641,597.23692 334.87522,479.12478 295.50403,361.01264 263.50194,264.16473 263.75947,263.90719 c 0.25754,-0.25753 69.94201,22.72901 154.85439,51.0812 84.91238,28.35219 155.14444,51.73446 156.07124,51.96061 0.92681,0.22614 2.50181,0.84826 3.5,1.38247 0.9982,0.53422 2.0399,0.94155 2.3149,0.90519 0.275,-0.0364 3.65,0.98214 7.5,2.26334 3.85,1.2812 7.225,2.33623 7.5,2.34451 0.275,0.008 3.425,1.092 7,2.40826 3.575,1.31626 7.2583,2.55389 8.1851,2.7503 0.92681,0.1964 2.50181,0.79419 3.5,1.3284 0.9982,0.53422 2.2649,1.01643 2.8149,1.07158 0.55,0.0552 3.925,1.09385 7.5,2.30821 3.575,1.21437 6.725,2.2443 7,2.28874 0.275,0.0444 3.425,1.07437 7,2.28874 3.575,1.21436 6.84222,2.19956 7.26048,2.18933 0.41826,-0.0102 2.10576,0.67708 3.75,1.52735 1.64424,0.85027 2.98952,1.32538 2.98952,1.0558 0,-0.26958 2.025,0.37787 4.5,1.43878 2.475,1.06091 4.5,1.70836 4.5,1.43878 0,-0.26958 1.34528,0.20553 2.98952,1.0558 1.64424,0.85027 3.33174,1.53757 3.75,1.52735 0.41826,-0.0102 3.68548,0.97497 7.26048,2.18933 3.575,1.21437 6.725,2.25516 7,2.31286 1.2394,0.26009 7.67264,2.32951 9.26764,2.98119 1.52408,0.62269 15.73383,-27.29966 103.12486,-202.64155 L 896.2497,0 997.357,202.86385 c 87.1815,174.92296 101.3507,202.76437 102.8751,202.14155 1.5952,-0.65175 8.0284,-2.72118 9.2679,-2.98128 0.275,-0.0577 3.425,-1.09849 7,-2.31286 3.575,-1.21436 6.8422,-2.19956 7.2605,-2.18933 0.4182,0.0102 2.1057,-0.67708 3.75,-1.52735 1.6442,-0.85027 2.9895,-1.32538 2.9895,-1.0558 0,0.26958 2.025,-0.37787 4.5,-1.43878 2.475,-1.06091 4.5,-1.70836 4.5,-1.43878 0,0.26958 1.3453,-0.20553 2.9895,-1.0558 1.6443,-0.85027 3.1068,-1.4627 3.25,-1.36096 0.1433,0.10175 3.4105,-0.88346 7.2605,-2.18933 3.85,-1.30588 7.225,-2.41069 7.5,-2.45513 0.275,-0.0444 3.425,-1.07437 7,-2.28874 3.575,-1.21436 6.725,-2.13264 7,-2.04062 0.275,0.092 1.5417,-0.39018 2.8149,-1.07158 1.2732,-0.68139 3.0732,-1.39959 4,-1.59599 0.9268,-0.19641 4.6101,-1.43404 8.1851,-2.7503 3.575,-1.31626 6.725,-2.39998 7,-2.40826 0.275,-0.008 3.425,-0.98844 7,-2.17812 3.575,-1.18968 6.95,-2.20819 7.5,-2.26334 0.55,-0.0552 1.8167,-0.53736 2.8149,-1.07158 0.9982,-0.53421 2.5732,-1.15633 3.5,-1.38247 0.9268,-0.22615 71.1589,-23.60842 156.0712,-51.96061 84.9124,-28.35219 154.5969,-51.33873 154.8544,-51.0812 0.2576,0.25754 -31.7539,97.13369 -71.1366,215.28035 -39.3827,118.14666 -71.2672,214.94854 -70.8544,215.11528 0.4128,0.16674 92.1005,45.89815 203.7505,101.62538 l 203,101.3221 -203,101.2407 c -111.65,55.6823 -203.1033,101.3293 -203.2296,101.4377 -0.1263,0.1085 31.9832,96.8344 71.3544,214.9465 39.3712,118.1122 71.3733,214.9601 71.1157,215.2176 -0.2575,0.2575 -69.942,-22.729 -154.8544,-51.0812 -84.9123,-28.3522 -155.1444,-51.7345 -156.0712,-51.9606 -0.9268,-0.2261 -2.7268,-0.9687 -4,-1.6501 -1.2732,-0.6814 -2.5399,-1.1636 -2.8149,-1.0715 -0.275,0.092 -3.425,-0.8061 -7,-1.9958 -3.575,-1.1897 -6.5996,-2.1244 -6.7214,-2.0771 -0.1218,0.047 -3.2718,-1.0364 -7,-2.4082 -3.7282,-1.3719 -7.5369,-2.655 -8.4637,-2.8514 -0.9268,-0.1964 -2.7268,-0.9146 -4,-1.596 -1.2732,-0.6814 -2.5399,-1.1636 -2.8149,-1.0715 -0.275,0.092 -3.425,-0.8263 -7,-2.0407 -3.575,-1.2143 -6.725,-2.2443 -7,-2.2887 -0.275,-0.044 -3.425,-1.0744 -7,-2.2887 -3.575,-1.2144 -6.8422,-2.1996 -7.2605,-2.1894 -0.4182,0.01 -2.1057,-0.6771 -3.75,-1.5273 -1.6442,-0.8503 -2.9895,-1.3254 -2.9895,-1.0558 0,0.2696 -2.025,-0.3779 -4.5,-1.4388 -2.475,-1.0609 -4.5,-1.7084 -4.5,-1.4388 0,0.2696 -1.3453,-0.2055 -2.9895,-1.0558 -1.6443,-0.8502 -3.3318,-1.5376 -3.75,-1.5273 -0.4183,0.01 -3.6855,-0.975 -7.2605,-2.1894 -3.575,-1.2143 -6.725,-2.2551 -7,-2.3128 -1.2394,-0.2601 -7.6726,-2.3295 -9.2676,-2.9812 -1.5241,-0.6227 -15.7339,27.2996 -103.1249,202.6415 L 896.7503,1793 Z"
     id="path1" /></svg>
