<?xml version="1.0" encoding="UTF-8" standalone="no"?>
<svg
   width="767.65479pt"
   height="767.54987pt"
   version="1.1"
   viewBox="0 0 767.65479 767.54987"
   id="svg4"
   sodipodi:docname="icon-cookies-black.svg"
   inkscape:version="1.4-beta3 (01c8a1c, 2024-08-28, custom)"
   xmlns:inkscape="http://www.inkscape.org/namespaces/inkscape"
   xmlns:sodipodi="http://sodipodi.sourceforge.net/DTD/sodipodi-0.dtd"
   xmlns="http://www.w3.org/2000/svg"
   xmlns:svg="http://www.w3.org/2000/svg">
  <defs
     id="defs4" />
  <sodipodi:namedview
     id="namedview4"
     pagecolor="#717070"
     bordercolor="#000000"
     borderopacity="0.25"
     inkscape:showpageshadow="2"
     inkscape:pageopacity="0.0"
     inkscape:pagecheckerboard="0"
     inkscape:deskcolor="#d1d1d1"
     inkscape:document-units="pt"
     inkscape:zoom="0.509375"
     inkscape:cx="511.41104"
     inkscape:cy="511.41104"
     inkscape:window-width="1920"
     inkscape:window-height="1017"
     inkscape:window-x="-8"
     inkscape:window-y="-8"
     inkscape:window-maximized="1"
     inkscape:current-layer="svg4" />
  <path
     id="path1"
     d="M 365.54997,0 C 265.95197,4.7891 172.11984,48.13286 103.90984,120.85986 35.698841,193.58986 -1.5505092,289.99971 0.04949077,389.69971 1.6471908,489.39871 41.964391,584.56959 112.47039,655.07959 c 70.508,70.508 165.67988,110.8209 265.37988,112.4209 99.703,1.5977 196.10984,-35.65235 268.83984,-103.86035 C 719.42011,595.42514 762.75997,501.59 767.54997,402 c 1.0508,-22.469 -5.82456,-44.59421 -19.42236,-62.51221 -13.5978,-17.918 -33.05505,-30.49185 -54.97705,-35.52685 -55.848,-13.004 -106.94976,-41.37102 -147.50976,-81.89502 -40.57,-40.527 -68.9873,-91.5932 -82.0503,-147.4292 l -0.001,0.003 C 458.7575,53.45572 446.87809,34.53756 429.89809,20.97956 412.91763,7.42049 391.83857,0.027 370.10857,0 Z m 282.11866,71.87988 c -26.512,0 -48,21.492 -48,48 0,26.512 21.488,48 48,48 26.508,0 48,-21.488 48,-48 0,-26.508 -21.492,-48 -48,-48 z M 369.86394,96.00293 c 16.988,73.465 54.27761,140.68047 107.62061,193.98047 53.34,53.297 120.57957,90.53447 194.05957,107.45947 -3.457,74.027 -35.31897,143.88026 -88.95997,195.01026 C 528.94457,643.58877 457.65787,672.08049 383.54997,672 c -76.383,1.8125 -150.36087,-26.78911 -205.65087,-79.51611 -55.297,-52.73 -87.377949,-125.26014 -89.189949,-201.64014 -1.8125,-76.383 26.787649,-150.35941 79.514649,-205.64941 52.73,-55.293 125.26014,-87.37941 201.64014,-89.19141 z m -70.19531,167.87695 c -26.512,0 -48,21.492 -48,48 0,26.512 21.488,48 48,48 26.508,0 48,-21.488 48,-48 0,-26.508 -21.492,-48 -48,-48 z m 84,180 c -26.512,0 -48,21.492 -48,48 0,26.512 21.488,48 48,48 26.508,0 48,-21.488 48,-48 0,-26.508 -21.492,-48 -48,-48 z" />
</svg>
