<?xml version="1.0" encoding="UTF-8" standalone="no"?>
<svg
   width="2304.2849pt"
   height="2304.2849pt"
   version="1.1"
   viewBox="0 0 2304.2849 2304.2849"
   id="svg2"
   sodipodi:docname="icon-feature-white.svg"
   inkscape:version="1.4-beta3 (01c8a1c, 2024-08-28, custom)"
   xmlns:inkscape="http://www.inkscape.org/namespaces/inkscape"
   xmlns:sodipodi="http://sodipodi.sourceforge.net/DTD/sodipodi-0.dtd"
   xmlns="http://www.w3.org/2000/svg"
   xmlns:svg="http://www.w3.org/2000/svg">
  <defs
     id="defs2" />
  <sodipodi:namedview
     id="namedview2"
     pagecolor="#717070"
     bordercolor="#000000"
     borderopacity="0.25"
     inkscape:showpageshadow="2"
     inkscape:pageopacity="0.0"
     inkscape:pagecheckerboard="0"
     inkscape:deskcolor="#d1d1d1"
     inkscape:document-units="pt"
     inkscape:zoom="0.294375"
     inkscape:cx="1535.4565"
     inkscape:cy="1537.155"
     inkscape:window-width="1920"
     inkscape:window-height="1017"
     inkscape:window-x="-8"
     inkscape:window-y="-8"
     inkscape:window-maximized="1"
     inkscape:current-layer="svg2" />
  <path
     id="path1"
     d="M 1080.0923,3.3264643e-4 C 1041.8893,-0.03086735 1005.2404,15.121915 978.2124,42.121915 L 211.05322,809.2811 c -67.113,66.73 -120.320271,146.1206 -156.530271,233.5606 -36.215,87.438 -54.71566436,181.2003 -54.43066436,275.8403 v 121.3199 c 0,57.285 22.75860136,112.229 63.26660136,152.729 40.507994,40.5 95.448004,63.2666 152.729004,63.2666 h 0.004 121.31982 c 190.94,-0.039 374.03907,-75.9255 509.03907,-210.9595 L 1613.6119,678.23764 c 26.695,-26.527 41.9414,-62.44859 42.4804,-100.07959 0.3789,-101.35 -25.9892,-201.01113 -76.4502,-288.91113 C 1529.1851,201.34492 1456.432,128.3172 1368.712,77.527188 1281.001,26.742188 1181.4423,3.3264643e-4 1080.0923,3.3264643e-4 Z M 1134.4512,293.03794 c 56.488,10.898 108.4206,38.46111 149.1006,79.14111 40.68,40.68 68.2421,92.61212 79.1411,149.09912 L 642.69287,1241.2782 c -39.984,40.254 -87.55071,72.1802 -139.94971,93.9302 -52.402,21.754 -108.60106,32.8981 -165.33106,32.7891 h -49.31982 v -49.3199 c -0.20312,-56.77 10.86229,-113.0204 32.55029,-165.4804 21.691,-52.465 53.5776,-100.1092 93.8086,-140.1592 z M 1764.293,1440.0282 c -50.3526,0 -100.7048,6.5733 -149.7598,19.7198 -98.109,26.297 -187.5713,77.9575 -259.3813,149.7905 l -321.479,321.4805 c -54.47701,54.453 -128.34994,85.0429 -205.37994,85.0429 -77.027,0 -150.89988,-30.5899 -205.37988,-85.0429 l -16.56006,-16.5601 c -36.398,-36.398 -89.44794,-50.612 -139.16894,-37.292 -49.723,13.324 -88.55889,52.1599 -101.87989,101.8799 -13.32001,49.719 0.8935,102.7689 37.292,139.1689 l 16.56005,16.5601 c 71.812,71.832 161.26989,123.4891 259.37989,149.7891 98.109,26.293 201.40953,26.293 299.51953,0 98.10904,-26.297 187.56994,-77.9561 259.37994,-149.7891 l 321.4805,-321.4805 c 54.477,-54.453 128.3498,-85.0429 205.3798,-85.0429 77.027,0 150.8999,30.5899 205.3799,85.0429 l 88.5586,88.5586 c 36.398,36.398 89.4494,50.6135 139.1704,37.2935 49.723,-13.324 88.5589,-52.1599 101.8799,-101.8799 13.32,-49.719 -0.8949,-102.7704 -37.2934,-139.1704 l -88.5586,-88.5586 c -71.812,-71.832 -161.2699,-123.4905 -259.3799,-149.7905 -49.0545,-13.1465 -99.4072,-19.7198 -149.7598,-19.7198 z"
     style="fill:#ffffff" />
</svg>
