<?xml version="1.0" encoding="UTF-8" standalone="no"?>
<svg
   width="792.00586pt"
   height="792.12354pt"
   version="1.1"
   viewBox="0 0 792.00586 792.12354"
   id="svg5"
   sodipodi:docname="icon-support-white.svg"
   inkscape:version="1.4-beta3 (01c8a1c, 2024-08-28, custom)"
   xmlns:inkscape="http://www.inkscape.org/namespaces/inkscape"
   xmlns:sodipodi="http://sodipodi.sourceforge.net/DTD/sodipodi-0.dtd"
   xmlns="http://www.w3.org/2000/svg"
   xmlns:svg="http://www.w3.org/2000/svg">
  <defs
     id="defs5" />
  <sodipodi:namedview
     id="namedview5"
     pagecolor="#717070"
     bordercolor="#000000"
     borderopacity="0.25"
     inkscape:showpageshadow="2"
     inkscape:pageopacity="0.0"
     inkscape:pagecheckerboard="0"
     inkscape:deskcolor="#d1d1d1"
     inkscape:document-units="pt"
     inkscape:zoom="0.509375"
     inkscape:cx="527.11656"
     inkscape:cy="529.07975"
     inkscape:window-width="1920"
     inkscape:window-height="1017"
     inkscape:window-x="-8"
     inkscape:window-y="-8"
     inkscape:window-maximized="1"
     inkscape:current-layer="svg5" />
  <path
     id="path1"
     d="m 574.21436,0.0224403 c -15.0626,0.37619007 -29.81841,5.4779507 -42.04834,14.8637697 -17.789,13.652 -28.19916,34.815305 -28.16016,57.237305 0,51.000005 72.00023,113.879415 114.24023,146.399415 8.5586,6.7148 19.125,10.36816 30,10.36817 10.879,0 21.445,-3.65347 30,-10.36817 41.762,-32.52 113.75977,-95.39741 113.75977,-146.399415 0,-19.094 -7.58526,-37.410645 -21.08936,-50.910645 -13.5,-13.5040002 -31.81664,-21.08935549 -50.91064,-21.08935548 -14.262,-0.0117 -28.20701,4.21442488 -40.06201,12.14062548 -11.859,7.9258 -21.09504,19.194906 -26.54004,32.378906 -0.92578,2.1562 -3.05035,3.555176 -5.39795,3.555176 -2.3476,0 -4.47225,-1.398876 -5.39795,-3.555176 -8.5234,-20.742 -26.21909,-36.3280628 -47.87109,-42.1640628 -6.765,-1.82249994 -13.67583,-2.62753839 -20.52246,-2.4565429 z M 384,24.123515 c -101.84,0 -199.5193,40.457703 -271.5293,112.470705 C 40.454703,208.60622 0,306.27352 0,408.12352 0,509.97352 40.457703,607.64428 112.4707,679.65428 184.4827,751.67028 282.15,792.12352 384,792.12352 h 0.006 c 75.199,-0.0156 148.74,-22.10946 211.5,-63.54346 62.758,-41.434 111.96002,-100.3793 141.52002,-169.5293 29.555,-69.148 38.15921,-145.4497 24.74121,-219.4497 -3.4375,-16.484 -15.26216,-29.966 -31.16016,-35.521 -15.898,-5.5547 -33.547,-2.37108 -46.5,8.39062 -12.953,10.758 -19.32425,27.51997 -16.78125,44.16797 10.574,58.215 2.96493,118.281 -21.79687,172.021 -24.766,53.734 -65.47589,98.54185 -116.60889,128.31885 -51.129,29.781 -110.19137,43.09449 -169.15137,38.12549 -58.957,-4.9727 -114.95988,-27.97947 -160.37988,-65.89747 -45.422,-37.918 -78.058,-88.90627 -93.479,-146.03027 -15.418002,-57.125 -12.871021,-117.60949 7.30078,-173.22949 20.172,-55.625 56.9832,-103.6899 105.4292,-137.6499 48.453,-33.965 106.19035,-52.18134 165.36035,-52.17334 17.148,0 32.99534,-9.1484 41.56934,-24.000005 8.5742,-14.852 8.5742,-33.148 0,-48 -8.5742,-14.852 -24.42134,-24 -41.56934,-24 z M 276.00586,288.12352 c -26.508,0 -48,21.492 -48,48 0,26.508 21.492,48 48,48 26.508,0 48,-21.492 48,-48 0,-26.508 -21.492,-48 -48,-48 z m 240,0 c -26.508,0 -48,21.492 -48,48 0,26.508 21.492,48 48,48 26.508,0 48,-21.492 48,-48 0,-26.508 -21.492,-48 -48,-48 z M 396.00879,408.14695 c -31.742,0 -62.102,13.0035 -84,35.9795 l -18.96094,21.71923 c -10.211,13.445 -23.78889,23.95747 -39.35889,30.48047 -4.9102,1.9414 -8.94103,5.60923 -11.32763,10.31983 -2.3867,4.707 -2.9693,10.12391 -1.6333,15.23291 1.336,5.109 4.49221,9.55166 8.88281,12.48486 h -0.006 c 29.941,19.969 68.01641,23.22751 100.92041,8.64111 16.98,-7.8164 31.65205,-19.88706 42.60205,-35.03906 l 2.87842,-3.84082 2.87842,3.84082 c 10.949,15.152 25.62105,27.22306 42.60205,35.03906 32.902,14.586 70.97741,11.32749 100.92041,-8.64111 4.3906,-2.9336 7.54691,-7.37586 8.88281,-12.48486 1.3359,-5.109 0.75487,-10.52591 -1.63184,-15.23291 -2.3867,-4.7109 -6.4191,-8.37873 -11.3291,-10.31983 -15.57,-6.5234 -29.14788,-17.03547 -39.35888,-30.48047 l -18.96094,-21.71923 c -21.898,-22.977 -52.258,-35.9795 -84,-35.9795 z"
     style="fill:#ffffff" />
</svg>
