<?xml version="1.0" encoding="UTF-8" standalone="no"?>
<svg
   width="767.65479pt"
   height="767.54987pt"
   version="1.1"
   viewBox="0 0 767.65479 767.54987"
   id="svg4"
   sodipodi:docname="icon-cookies-black.svg"
   inkscape:version="1.4-beta3 (01c8a1c, 2024-08-28, custom)"
   xmlns:inkscape="http://www.inkscape.org/namespaces/inkscape"
   xmlns:sodipodi="http://sodipodi.sourceforge.net/DTD/sodipodi-0.dtd"
   xmlns="http://www.w3.org/2000/svg"
   xmlns:svg="http://www.w3.org/2000/svg">
  <defs
     id="defs4" />
  <sodipodi:namedview
     id="namedview4"
     pagecolor="#717070"
     bordercolor="#000000"
     borderopacity="0.25"
     inkscape:showpageshadow="2"
     inkscape:pageopacity="0.0"
     inkscape:pagecheckerboard="0"
     inkscape:deskcolor="#d1d1d1"
     inkscape:document-units="pt"
     inkscape:zoom="0.509375"
     inkscape:cx="512.39264"
     inkscape:cy="509.44785"
     inkscape:window-width="1920"
     inkscape:window-height="1017"
     inkscape:window-x="-8"
     inkscape:window-y="-8"
     inkscape:window-maximized="1"
     inkscape:current-layer="svg4" />
  <path
     id="path1"
     d="M 365.54996,1.2589894e-5 C 265.95196,4.7891126 172.11983,48.132873 103.90983,120.85987 35.698831,193.58987 -1.5505189,289.99972 0.04948106,389.69972 1.6471811,489.39872 41.964381,584.5696 112.47038,655.0796 c 70.508,70.508 165.67988,110.8209 265.37988,112.4209 99.703,1.5977 196.10984,-35.65235 268.83984,-103.86035 72.73,-68.215 116.06986,-162.05014 120.85986,-261.64014 1.0508,-22.469 -5.82456,-44.59421 -19.42236,-62.51221 -13.5978,-17.918 -33.05505,-30.49185 -54.97705,-35.52685 -55.848,-13.004 -106.94976,-41.37102 -147.50976,-81.89502 -40.57,-40.527 -68.9873,-91.5932 -82.0503,-147.429197 l -10e-4,0.003 c -4.832,-21.184 -16.71141,-40.10216 -33.69141,-53.66016 C 412.91762,7.4205026 391.83856,0.02701259 370.10856,1.2589894e-5 Z M 647.66862,71.879893 c -26.512,0 -48,21.492 -48,47.999997 0,26.512 21.488,48 48,48 26.508,0 48,-21.488 48,-48 0,-26.507997 -21.492,-47.999997 -48,-47.999997 z m -277.80469,24.12305 c 16.988,73.464997 54.27761,140.680467 107.62061,193.980467 53.34,53.297 120.57957,90.53447 194.05957,107.45947 -3.457,74.027 -35.31897,143.88026 -88.95997,195.01026 -53.63958,51.13564 -124.92628,79.62736 -199.03418,79.54687 -76.383,1.8125 -150.36087,-26.78911 -205.65087,-79.51611 -55.297,-52.73 -87.377949,-125.26014 -89.189949,-201.64014 -1.8125,-76.383 26.787649,-150.35941 79.514649,-205.64941 52.73,-55.293 125.26014,-87.379407 201.64014,-89.191407 z M 299.66862,263.87989 c -26.512,0 -48,21.492 -48,48 0,26.512 21.488,48 48,48 26.508,0 48,-21.488 48,-48 0,-26.508 -21.492,-48 -48,-48 z m 84,180 c -26.512,0 -48,21.492 -48,48 0,26.512 21.488,48 48,48 26.508,0 48,-21.488 48,-48 0,-26.508 -21.492,-48 -48,-48 z" />
</svg>
